<?xml version="1.0" standalone="no"?><!DOCTYPE svg PUBLIC "-//W3C//DTD SVG 1.1//EN" "http://www.w3.org/Graphics/SVG/1.1/DTD/svg11.dtd"><svg t="1599658279939" class="icon" viewBox="0 0 1024 1024" version="1.1" xmlns="http://www.w3.org/2000/svg" p-id="7667" xmlns:xlink="http://www.w3.org/1999/xlink" width="200" height="200"><defs><style type="text/css"></style></defs><path d="M512 877.87c-44.1 0-88.2-16.78-121.78-50.36L147.09 584.39c-100.13-100.13-100.13-263.04 0-363.17 100.11-100.11 263-100.14 363.15 0l1.76 1.76 1.76-1.76c100.13-100.13 263.02-100.13 363.15 0s100.13 263.04 0 363.17L633.78 827.51C600.2 861.09 556.1 877.87 512 877.87zM328.68 184.39c-55.97 0-111.92 21.28-154.52 63.89-85.2 85.21-85.2 223.84 0 309.05l243.12 243.12c52.25 52.21 137.2 52.21 189.45 0l243.12-243.12c85.2-85.21 85.2-223.84 0-309.05-85.2-85.16-223.84-85.2-309.03 0L512 277.1l-28.82-28.82c-42.6-42.61-98.55-63.89-154.5-63.89z" p-id="7668" fill="#d81e06"></path></svg>