<?xml version="1.0" standalone="no"?><!DOCTYPE svg PUBLIC "-//W3C//DTD SVG 1.1//EN" "http://www.w3.org/Graphics/SVG/1.1/DTD/svg11.dtd"><svg t="1599658106712" class="icon" viewBox="0 0 1024 1024" version="1.1" xmlns="http://www.w3.org/2000/svg" p-id="7122" xmlns:xlink="http://www.w3.org/1999/xlink" width="200" height="200"><defs><style type="text/css"></style></defs><path d="M866.61 157.39c-23.6-23.64-58.11-32.22-90.12-22.19L194.08 317c-30.21 9.43-52.76 33.42-60.35 64.17-7.56 30.73 1.28 62.45 23.66 84.83l137.74 137.74v268.23c0 10.81 8.75 19.56 19.56 19.56 10.81 0 19.56-8.75 19.56-19.56V605.13l318.92-251.29c8.48-6.68 9.93-18.98 3.25-27.46-6.68-8.46-18.96-9.93-27.46-3.25l-312.71 246.4-131.2-131.19c-12.62-12.62-17.61-30.5-13.33-47.84 4.26-17.32 16.98-30.84 34.01-36.17l582.41-181.8c18.31-5.73 37.28-1.03 50.82 12.51s18.22 32.54 12.53 50.82L669.65 818.27c-5.31 17.03-18.83 29.75-36.15 34.01-17.34 4.3-35.21-0.71-47.84-13.33l-128.9-128.9c-7.64-7.64-20.01-7.64-27.65 0-7.64 7.64-7.64 20.01 0 27.65l128.9 128.9c17.11 17.11 39.68 26.32 63.1 26.32 7.2 0 14.49-0.88 21.73-2.65 30.75-7.58 54.73-30.13 64.15-60.35l181.84-582.41c9.94-31.93 1.44-66.48-22.22-90.12z" p-id="7123" fill="#d81e06"></path></svg>