<?xml version="1.0" standalone="no"?><!DOCTYPE svg PUBLIC "-//W3C//DTD SVG 1.1//EN" "http://www.w3.org/Graphics/SVG/1.1/DTD/svg11.dtd"><svg t="1599658349430" class="icon" viewBox="0 0 1024 1024" version="1.1" xmlns="http://www.w3.org/2000/svg" p-id="7914" xmlns:xlink="http://www.w3.org/1999/xlink" width="200" height="200"><defs><style type="text/css"></style></defs><path d="M779.27 168.36H244.73C160.38 168.36 92 236.74 92 321.09v534.55h687.27c84.35 0 152.73-68.38 152.73-152.73V321.09c0-84.35-68.38-152.73-152.73-152.73z m114.55 534.55c0 63.16-51.38 114.55-114.55 114.55H130.18V321.09c0-63.16 51.38-114.55 114.55-114.55h534.55c63.16 0 114.55 51.38 114.55 114.55v381.82z" p-id="7915" fill="#d81e06"></path><path d="M302 512m-38.18 0a38.18 38.18 0 1 0 76.36 0 38.18 38.18 0 1 0-76.36 0Z" p-id="7916" fill="#d81e06"></path><path d="M512 512m-38.18 0a38.18 38.18 0 1 0 76.36 0 38.18 38.18 0 1 0-76.36 0Z" p-id="7917" fill="#d81e06"></path><path d="M722 512m-38.18 0a38.18 38.18 0 1 0 76.36 0 38.18 38.18 0 1 0-76.36 0Z" p-id="7918" fill="#d81e06"></path></svg>