<?xml version="1.0" standalone="no"?><!DOCTYPE svg PUBLIC "-//W3C//DTD SVG 1.1//EN" "http://www.w3.org/Graphics/SVG/1.1/DTD/svg11.dtd"><svg t="1599658421041" class="icon" viewBox="0 0 1024 1024" version="1.1" xmlns="http://www.w3.org/2000/svg" p-id="8164" xmlns:xlink="http://www.w3.org/1999/xlink" width="200" height="200"><defs><style type="text/css"></style></defs><path d="M505.21 550.18c58.63 0 117.26-22.37 161.99-67.1 89.47-89.47 89.47-234.52 0-323.98C622.46 114.37 563.83 92 505.21 92c-58.63 0-117.26 22.37-161.99 67.1-89.47 89.47-89.47 234.52 0 323.98 44.73 44.74 103.36 67.1 161.99 67.1z m-135-364.08c36.06-36.06 84-55.92 134.99-55.92 50.99 0 98.94 19.86 134.99 55.92 74.43 74.44 74.43 195.55 0 269.99-36.06 36.06-84 55.92-134.99 55.92s-98.94-19.86-134.99-55.92c-74.43-74.44-74.43-195.56 0-269.99zM702.91 626.55H321.09C194.57 626.55 92 729.11 92 855.64c0 42.17 34.19 76.36 76.36 76.36h687.27c42.18 0 76.36-34.19 76.36-76.36 0.01-126.53-102.56-229.09-229.08-229.09z m152.73 267.27H168.36c-21.05 0-38.18-17.13-38.18-38.18 0-105.27 85.64-190.91 190.91-190.91h381.82c105.27 0 190.91 85.64 190.91 190.91 0 21.05-17.13 38.18-38.18 38.18z" p-id="8165"></path></svg>